<svg width="140" height="19" viewBox="0 0 140 19" fill="none" xmlns="http://www.w3.org/2000/svg">
<path d="M10 15.27L16.18 19L14.54 11.97L20 7.24L12.81 6.62L10 0L7.19 6.62L0 7.24L5.45 11.97L3.82 19L10 15.27Z" fill="#009FDA"/>
<path d="M40 15.27L46.18 19L44.54 11.97L50 7.24L42.81 6.62L40 0L37.19 6.62L30 7.24L35.45 11.97L33.82 19L40 15.27Z" fill="#009FDA"/>
<path d="M70 15.27L76.18 19L74.54 11.97L80 7.24L72.81 6.62L70 0L67.19 6.62L60 7.24L65.45 11.97L63.82 19L70 15.27Z" fill="#009FDA"/>
<path d="M100 15.27L106.18 19L104.54 11.97L110 7.24L102.81 6.62L100 0L97.19 6.62L90 7.24L95.45 11.97L93.82 19L100 15.27Z" fill="#009FDA"/>
<path opacity="0.5" d="M130 15.27L136.18 19L134.54 11.97L140 7.24L132.81 6.62L130 0L127.19 6.62L120 7.24L125.45 11.97L123.82 19L130 15.27Z" fill="#009FDA"/>
<mask id="mask0" mask-type="alpha" maskUnits="userSpaceOnUse" x="120" y="0" width="20" height="19">
<path d="M130 15.27L136.18 19L134.54 11.97L140 7.24L132.81 6.62L130 0L127.19 6.62L120 7.24L125.45 11.97L123.82 19L130 15.27Z" fill="black"/>
</mask>
<g mask="url(#mask0)">
<rect x="119" y="-2" width="14" height="23" fill="#009FDA"/>
</g>
</svg>
